<svg width="115" height="96" viewBox="0 0 115 96" fill="none" xmlns="http://www.w3.org/2000/svg">
<path d="M55.3633 1.43764C55.3633 1.67724 54.8925 2.54582 53.9505 4.04335C53.0675 5.48099 51.9197 7.27804 50.5069 9.43449C49.0941 11.5909 47.5636 13.9271 45.9153 16.443C44.2671 18.8989 42.6777 21.265 41.1472 23.5413C39.6167 25.7577 38.2628 27.7044 37.0855 29.3817C35.967 30.999 35.2312 32.0473 34.878 32.5265C34.6425 32.9458 34.2599 33.1555 33.7301 33.1555C33.2003 33.1555 32.7588 32.9159 32.4056 32.4367L11.2139 2.42601C11.0373 2.24631 10.949 2.0067 10.949 1.70719C10.949 1.28788 11.0962 0.958426 11.3905 0.718818C11.7437 0.419312 12.0969 0.269557 12.4501 0.269557C12.8033 0.269557 13.1271 0.449262 13.4214 0.80867L33.6418 29.3817L52.8027 0.718818C53.0383 0.299511 53.4207 0.0898565 53.9505 0.0898565C54.3037 0.0898565 54.6276 0.239608 54.9218 0.539119C55.216 0.778721 55.3633 1.07823 55.3633 1.43764ZM34.7014 70.6238C34.7014 70.9833 34.5542 71.3129 34.2599 71.6122C34.0244 71.852 33.7301 71.9716 33.3769 71.9716C33.0237 71.9716 32.7 71.852 32.4056 71.6122C32.1702 71.3129 32.0524 70.9833 32.0524 70.6238V46.7232C31.5815 46.0643 30.4631 44.5368 28.6971 42.1407C26.9311 39.6847 24.8414 36.8095 22.4279 33.5149C20.0732 30.2203 17.5715 26.746 14.9225 23.092C12.3324 19.3781 9.91888 15.9638 7.68199 12.8489C5.44509 9.67411 3.59082 7.03841 2.11917 4.94188C0.70639 2.78542 0 1.58739 0 1.34779C0 0.988375 0.147166 0.688869 0.441494 0.449262C0.794689 0.209659 1.14788 0.0898565 1.50108 0.0898565C1.91314 0.0898565 2.26634 0.269562 2.56066 0.628966L34.4365 45.4652C34.6131 45.7647 34.7014 46.0343 34.7014 46.2739V70.6238ZM114.761 52.6534C114.761 55.8881 114.055 58.7336 112.642 61.1894C111.288 63.5856 109.463 65.5921 107.167 67.2095C104.93 68.7667 102.399 69.9651 99.5736 70.8036C96.8066 71.5824 94.0107 71.9716 91.1852 71.9716C86.1814 71.9716 81.4426 70.9833 76.9691 69.0065C72.4951 67.0298 68.4924 64.3342 64.9605 60.9198C64.6073 60.5604 64.4307 60.2308 64.4307 59.9314C64.4307 59.572 64.5775 59.2424 64.8722 58.9431C65.1663 58.5836 65.5195 58.4039 65.9317 58.4039C66.2259 58.4039 66.5201 58.5539 66.8147 58.8532C70.4643 61.9682 74.2318 64.4841 78.117 66.4008C82.0607 68.2579 86.4756 69.1862 91.3618 69.1862C93.8342 69.1862 96.2768 68.8566 98.6906 68.1978C101.163 67.479 103.37 66.4306 105.313 65.053C107.314 63.6154 108.903 61.8481 110.081 59.7517C111.317 57.6553 111.935 55.1991 111.935 52.3839C111.935 50.1078 111.406 48.1608 110.346 46.5435C109.286 44.8662 107.903 43.4585 106.196 42.3204C104.489 41.1224 102.517 40.134 100.28 39.3553C98.1018 38.5765 95.8943 37.9176 93.6576 37.3785C91.4203 36.7795 89.2129 36.2704 87.0351 35.851C84.916 35.4317 83.0617 35.0124 81.4723 34.5931C79.5297 34.054 77.6457 33.3352 75.8212 32.4367C74.0552 31.4782 72.4951 30.3101 71.1414 28.9324C69.7871 27.5547 68.6983 25.9673 67.8743 24.1702C67.1089 22.3133 66.7264 20.2467 66.7264 17.9704C66.7264 14.9155 67.4031 12.2798 68.7573 10.0635C70.1701 7.78721 71.9653 5.93025 74.1435 4.49262C76.3803 2.99508 78.8234 1.8869 81.4723 1.16808C84.1798 0.389358 86.8288 0 89.4192 0C91.0671 0 92.9214 0.179705 94.982 0.539119C97.1012 0.898523 99.1906 1.43764 101.251 2.15646C103.37 2.81537 105.342 3.62404 107.167 4.58247C108.992 5.54091 110.523 6.61913 111.759 7.81715C111.935 7.99685 112.053 8.14662 112.112 8.26641C112.23 8.3862 112.289 8.59588 112.289 8.89538C112.289 9.25478 112.141 9.58426 111.847 9.88375C111.552 10.1832 111.229 10.333 110.876 10.333C110.758 10.333 110.523 10.2432 110.169 10.0635C109.875 9.88375 109.522 9.67411 109.11 9.43449C108.757 9.135 108.403 8.89538 108.05 8.71567C107.756 8.47605 107.52 8.29634 107.344 8.17656C104.695 6.55922 101.869 5.27135 98.8672 4.31291C95.865 3.35449 92.7746 2.87527 89.5958 2.87527C87.3586 2.87527 85.0628 3.17478 82.7085 3.77379C80.3537 4.31291 78.1755 5.1815 76.1744 6.37951C74.2318 7.57753 72.6127 9.135 71.318 11.0518C70.0818 12.9088 69.4637 15.1551 69.4637 17.7907C69.4637 20.666 70.1111 23.0321 71.4063 24.8891C72.701 26.6861 74.4084 28.1837 76.5276 29.3817C78.6468 30.5198 81.0601 31.4483 83.7681 32.1671C86.4756 32.8859 89.2426 33.5748 92.0682 34.2337C94.9523 34.8926 97.7486 35.6114 100.457 36.3902C103.164 37.1689 105.578 38.2471 107.697 39.6248C109.816 40.9427 111.523 42.6499 112.818 44.7464C114.113 46.7831 114.761 49.4187 114.761 52.6534Z" fill="#5B4340"/>
<path d="M23.4131 95.2284H24.4866V92.7882C24.877 93.0152 25.4625 93.2564 26.2572 93.2564C28.1673 93.2564 29.3802 92.1782 29.3802 89.6103V89.4259C29.3802 86.8154 28.0697 85.9642 26.55 85.9642C25.6577 85.9642 24.9328 86.2763 24.5006 86.6736H24.4448V86.1061H23.4131V95.2284ZM26.1596 92.3626C25.4347 92.3626 24.8073 92.1356 24.4866 91.8661V87.3971C24.8073 87.1701 25.4625 86.8864 26.2712 86.8864C27.5399 86.8864 28.2649 87.4964 28.2649 89.4826V89.7664C28.2649 91.6533 27.4702 92.3626 26.1596 92.3626ZM31.7075 93.1287H32.767V87.4255C33.3387 87.1417 34.0636 86.9006 34.7189 86.9006C35.8203 86.9006 36.1131 87.2552 36.1131 88.1065V93.1287H37.1727V87.8937C37.1727 86.5317 36.5174 85.9642 35.165 85.9642C34.3146 85.9642 33.4362 86.2621 32.8367 86.7019H32.767V82.9707H31.7075V93.1287ZM42.57 93.2564C44.4382 93.2564 45.7209 91.9228 45.7209 89.6812V89.4826C45.7209 87.2552 44.5358 85.9642 42.584 85.9642C40.7157 85.9642 39.447 87.2978 39.447 89.5252V89.738C39.447 91.9796 40.6181 93.2564 42.57 93.2564ZM42.5979 92.3626C41.4407 92.3626 40.5345 91.7242 40.5345 89.7664V89.4117C40.5345 87.766 41.3152 86.858 42.57 86.858C43.6993 86.858 44.6334 87.4964 44.6334 89.4543V89.8089C44.6334 91.4688 43.8527 92.3626 42.5979 92.3626ZM50.2127 93.2139C50.8122 93.2139 51.105 93.0578 51.3838 92.9301V92.1924C51.105 92.2775 50.7843 92.3201 50.4915 92.3201C49.6968 92.3201 49.4738 92.0505 49.4738 91.3695V86.9999H51.2444V86.1061H49.4738V84.432H48.4142V86.1061H47.4243V86.9999H48.4142V91.5398C48.4142 92.7315 49.1252 93.2139 50.2127 93.2139ZM56.2858 93.2564C58.154 93.2564 59.4367 91.9228 59.4367 89.6812V89.4826C59.4367 87.2552 58.2516 85.9642 56.2997 85.9642C54.4315 85.9642 53.1628 87.2978 53.1628 89.5252V89.738C53.1628 91.9796 54.3339 93.2564 56.2858 93.2564ZM56.3137 92.3626C55.1565 92.3626 54.2503 91.7242 54.2503 89.7664V89.4117C54.2503 87.766 55.031 86.858 56.2858 86.858C57.4151 86.858 58.3492 87.4964 58.3492 89.4543V89.8089C58.3492 91.4688 57.5684 92.3626 56.3137 92.3626ZM64.1518 95.2142C66.508 95.2142 67.456 94.2637 67.456 93.0578C67.456 91.7526 66.5219 91.3695 65.2672 91.3695H63.3571C62.897 91.3695 62.674 91.2277 62.674 90.8446C62.674 90.6176 62.8134 90.4474 62.9946 90.2771C63.3571 90.4048 63.7475 90.4757 64.1797 90.4757C65.6297 90.4757 66.7729 89.7238 66.7729 88.22V88.2058C66.7729 87.6525 66.5916 87.2269 66.271 86.9147H67.5118V86.0777H65.1696C64.8629 86.0068 64.5422 85.9642 64.1936 85.9642C62.674 85.9642 61.5865 86.7729 61.5865 88.2342V88.2625C61.5865 89.0996 61.9211 89.6671 62.4509 90.0217C61.9211 90.419 61.6702 90.7453 61.6702 91.1851C61.6702 91.6533 61.9769 91.9512 62.3672 92.0647V92.1356C61.6562 92.3768 61.0567 92.8166 61.0567 93.5685C61.0567 94.59 62.0466 95.2142 64.1518 95.2142ZM64.1239 94.363C62.7576 94.363 62.1721 94.0509 62.1721 93.4267C62.1721 92.8308 62.5764 92.5187 63.1062 92.3343H65.0999C66.0061 92.3343 66.3407 92.5471 66.3407 93.1997C66.3407 93.9374 65.7551 94.363 64.1239 94.363ZM64.1797 89.6245C63.2595 89.6245 62.6461 89.1705 62.6461 88.2483V88.1774C62.6461 87.2978 63.2316 86.7871 64.1797 86.7871C65.1138 86.7871 65.6994 87.2269 65.6994 88.1916V88.2625C65.6994 89.1705 65.1417 89.6245 64.1797 89.6245ZM69.4892 93.1287H70.5628V87.5957C71.0507 87.241 71.7199 86.9857 72.417 86.9857C72.5286 86.9857 72.7377 86.9999 72.919 87.0282V86.0493C72.8492 86.0351 72.6541 86.021 72.5007 86.021C71.7199 86.021 70.9671 86.4324 70.5767 86.8864H70.507V86.0919H69.4892V93.1287ZM76.5434 93.2564C77.4775 93.2564 78.0631 92.9159 78.3837 92.5187H78.4534L78.565 93.1287H79.4294V88.0355C79.4294 86.6026 78.5789 85.9642 77.0592 85.9642C76.2645 85.9642 75.5953 86.0919 74.9958 86.3473V87.1276C75.428 86.9999 75.9718 86.9006 76.641 86.9006C77.8818 86.9006 78.3558 87.1843 78.3558 88.2767V89.0144L76.4876 89.2414C75.1631 89.3975 74.3824 90.0501 74.3824 91.2844C74.3824 92.6038 75.2886 93.2564 76.5434 93.2564ZM76.8083 92.4052C76.0136 92.4052 75.4977 92.0221 75.4977 91.256C75.4977 90.4474 75.916 90.0927 76.7664 90.0076L78.3558 89.8231V91.8945C78.063 92.1924 77.4496 92.4052 76.8083 92.4052ZM82.1299 95.2284H83.2034V92.7882C83.5938 93.0152 84.1794 93.2564 84.9741 93.2564C86.8841 93.2564 88.097 92.1782 88.097 89.6103V89.4259C88.097 86.8154 86.7865 85.9642 85.2668 85.9642C84.3745 85.9642 83.6496 86.2763 83.2174 86.6736H83.1616V86.1061H82.1299V95.2284ZM84.8765 92.3626C84.1515 92.3626 83.5241 92.1356 83.2034 91.8661V87.3971C83.5241 87.1701 84.1794 86.8864 84.988 86.8864C86.2567 86.8864 86.9817 87.4964 86.9817 89.4826V89.7664C86.9817 91.6533 86.187 92.3626 84.8765 92.3626ZM90.424 93.1287H91.4835V87.4255C92.0552 87.1417 92.7801 86.9006 93.4354 86.9006C94.5368 86.9006 94.8296 87.2552 94.8296 88.1065V93.1287H95.8892V87.8937C95.8892 86.5317 95.2339 85.9642 93.8815 85.9642C93.0311 85.9642 92.1527 86.2621 91.5532 86.7019H91.4835V82.9707H90.424V93.1287ZM99.1256 95.2426C100.269 95.2426 100.84 94.817 101.3 93.5685L104.019 86.0919H102.946L101.077 91.4405H101.05L99.014 86.0919H97.8708L100.52 92.8734L100.311 93.455C100.018 94.2211 99.5996 94.3346 98.9304 94.3346C98.6794 94.3346 98.4285 94.2637 98.2612 94.2353V95.044C98.4563 95.1433 98.8049 95.2426 99.1256 95.2426Z" fill="#5B4340"/>
</svg>
