<svg width="496" height="377" viewBox="0 0 496 377" fill="none" xmlns="http://www.w3.org/2000/svg">
<path d="M94.2278 216.88C92.4545 216.88 91.0078 214.593 89.8878 210.02C89.2345 207.873 88.2545 203.487 86.9478 196.86L85.6878 189.58C84.5678 181.74 84.0078 173.853 84.0078 165.92C84.0078 160.88 84.1945 156.307 84.5678 152.2C85.6878 135.027 88.6745 118.413 93.5278 102.36C95.3011 96.2933 97.0278 91.02 98.7078 86.54C100.108 82.8067 101.134 78.1867 101.788 72.68C103.654 54.1067 105.894 37.4933 108.508 22.84C109.161 19.1067 110.234 13.5067 111.728 6.03999C112.008 4.82666 112.428 3.47333 112.988 1.98C113.174 1.69999 113.408 1.41999 113.688 1.13999C113.968 0.766661 114.248 0.579997 114.528 0.579997C114.994 0.673324 115.228 0.906657 115.228 1.28L115.088 2.39999L114.248 6.73999C113.781 8.79333 113.314 11.4067 112.848 14.58C111.914 21.02 110.328 32.4533 108.088 48.88C106.968 57 106.361 62.3667 106.268 64.98L106.128 66.24C106.128 66.4267 106.174 66.52 106.268 66.52C106.361 66.52 106.781 65.8667 107.528 64.56C107.434 64.6533 108.088 63.44 109.488 60.92C111.821 56.44 114.248 52.1 116.768 47.9C119.288 43.6067 122.368 39.1733 126.008 34.6C130.768 28.72 135.388 24.24 139.868 21.16C145.841 16.96 151.768 14.86 157.648 14.86C162.874 14.86 167.448 16.6333 171.368 20.18C174.168 22.7 176.548 26.0133 178.508 30.12C180.374 33.9467 181.774 38.6133 182.708 44.12C183.174 47.0133 183.408 50.56 183.408 54.76C183.408 62.1333 182.241 70.3467 179.908 79.4C177.481 88.64 173.468 98.2533 167.868 108.24C167.494 108.893 167.028 109.733 166.468 110.76C165.908 111.787 165.674 112.347 165.768 112.44C165.861 112.533 166.514 112.393 167.728 112.02C169.034 111.553 169.828 111.273 170.108 111.18C170.761 110.9 172.908 110.153 176.548 108.94C176.828 108.847 177.481 108.613 178.508 108.24C179.628 107.867 180.701 107.633 181.728 107.54C181.821 107.54 181.914 107.54 182.008 107.54C182.101 107.447 182.241 107.447 182.428 107.54C182.708 107.54 182.848 107.68 182.848 107.96C182.848 108.24 182.801 108.427 182.708 108.52C182.241 108.893 181.588 109.22 180.748 109.5C179.908 109.687 179.301 109.827 178.928 109.92L174.868 111.46C172.628 112.207 170.014 113.187 167.028 114.4C164.321 115.52 162.174 117.247 160.588 119.58C147.241 138.34 130.394 152.387 110.048 161.72C106.408 163.493 103.328 164.8 100.808 165.64C99.5945 166.107 98.9411 166.387 98.8478 166.48C98.7545 166.573 98.7078 167.087 98.7078 168.02L98.2878 174.18C97.5411 190.607 96.9345 202.927 96.4678 211.14C96.4678 212.727 96.2811 214.127 95.9078 215.34C95.8145 215.713 95.5811 216.04 95.2078 216.32C94.9278 216.693 94.6011 216.88 94.2278 216.88ZM100.808 147.72C100.901 147.72 101.788 147.16 103.468 146.04C105.988 144.36 107.248 143.52 107.248 143.52C122.181 133.627 138.374 124.853 155.828 117.2C156.761 116.733 157.508 116.313 158.068 115.94C158.628 115.473 159.234 114.82 159.888 113.98C162.128 110.62 164.088 107.4 165.768 104.32C174.168 89.1067 178.928 73.8467 180.048 58.54L180.188 52.94C180.188 45.2867 178.741 38.2867 175.848 31.94C174.261 28.2067 171.974 25.0333 168.988 22.42C165.721 19.5267 161.894 18.08 157.508 18.08C152.748 18.08 147.661 19.8067 142.248 23.26C137.674 26.1533 132.914 30.54 127.968 36.42C120.034 46.0333 112.708 58.3533 105.988 73.38C105.334 75.2467 104.821 77.58 104.448 80.38L99.8278 144.78C99.7345 145.06 99.6878 145.76 99.6878 146.88V147.72C99.6878 148.093 99.7811 148.233 99.9678 148.14C100.154 148.14 100.434 148 100.808 147.72ZM93.2478 212.4C93.6211 212.493 93.8078 211.467 93.8078 209.32L94.6478 171.66V168.44V167.88C94.6478 167.6 94.6011 167.367 94.5078 167.18C94.4145 167.087 94.2745 167.04 94.0878 167.04C93.9011 167.04 93.7611 167.04 93.6678 167.04C93.1078 166.947 92.2678 166.853 91.1478 166.76C90.1211 166.667 89.2345 166.433 88.4878 166.06C87.8345 165.78 87.3211 165.313 86.9478 164.66C86.5745 164.1 86.3878 163.587 86.3878 163.12C86.3878 162.747 86.5745 162.093 86.9478 161.16C88.1611 159.387 89.9811 157.1 92.4078 154.3C93.8078 152.807 94.7878 151.64 95.3478 150.8C95.5345 150.427 95.7211 149.307 95.9078 147.44C96.2811 141 96.9345 130.687 97.8678 116.5C97.9611 114.167 98.1945 110.433 98.5678 105.3L98.9878 98.3L99.2678 94.1V93.26C99.2678 92.3267 99.1745 91.86 98.9878 91.86C98.8011 91.86 98.4745 92.5133 98.0078 93.82C92.5011 109.687 88.7211 126.44 86.6678 144.08C85.9211 151.547 85.5478 158.5 85.5478 164.94C85.5478 171.287 85.9211 178.053 86.6678 185.24C87.7878 194.76 89.5145 203.113 91.8478 210.3C91.9411 210.673 92.1278 211.093 92.4078 211.56C92.6878 212.027 92.9678 212.307 93.2478 212.4ZM99.2678 161.72C99.5478 161.72 100.248 161.533 101.368 161.16C103.234 160.507 105.288 159.713 107.528 158.78C125.261 150.66 140.474 138.76 153.168 123.08C153.448 122.707 153.868 122.147 154.428 121.4C154.988 120.653 155.221 120.233 155.128 120.14C155.128 120.047 155.081 120 154.988 120C154.614 120 154.008 120.187 153.168 120.56C152.421 120.84 151.954 121.027 151.768 121.12C136.368 128.307 121.714 136.567 107.808 145.9C105.194 147.86 103.468 149.12 102.628 149.68C100.761 151.173 99.6878 152.107 99.4078 152.48C99.3145 152.853 99.2211 153.413 99.1278 154.16C99.1278 154.907 99.1278 155.56 99.1278 156.12C99.1278 156.307 99.0811 157.24 98.9878 158.92C98.9878 160.6 99.0345 161.533 99.1278 161.72H99.2678ZM91.8478 163.4C92.8745 163.4 93.5745 163.353 93.9478 163.26C94.3211 163.167 94.5545 163.027 94.6478 162.84C94.8345 162.747 94.9278 162.56 94.9278 162.28V160.18C95.1145 158.873 95.2078 157.847 95.2078 157.1V156.54C95.2078 156.26 95.1611 156.12 95.0678 156.12C94.7878 156.12 94.4145 156.353 93.9478 156.82C93.2945 157.38 92.6878 157.987 92.1278 158.64C91.5678 159.2 90.9145 160.133 90.1678 161.44C90.0745 161.627 90.0278 161.86 90.0278 162.14C90.0278 162.98 90.4478 163.4 91.2878 163.4H91.8478ZM182.935 145.06C180.882 145.06 179.575 144.22 179.015 142.54C178.735 141.98 178.595 141.093 178.595 139.88C178.595 139.227 178.782 138.247 179.155 136.94L180.135 134C180.509 132.973 180.742 132.32 180.835 132.04V131.34L180.695 129.66C180.695 128.82 180.882 128.26 181.255 127.98C181.722 127.607 182.235 127.373 182.795 127.28C183.355 127.187 183.729 127.093 183.915 127C185.129 126.627 186.295 125.88 187.415 124.76C187.789 124.387 188.302 124.107 188.955 123.92C189.609 123.547 190.075 123.64 190.355 124.2C190.542 124.48 190.635 124.947 190.635 125.6C190.635 125.88 190.402 126.207 189.935 126.58C189.469 126.953 189.329 127.327 189.515 127.7C189.702 128.073 190.075 128.587 190.635 129.24C191.289 129.893 191.709 130.36 191.895 130.64L192.315 131.34C192.595 132.18 192.735 133.02 192.735 133.86C192.735 135.353 192.455 136.753 191.895 138.06L192.315 138.2L194.555 138.34C198.009 138.34 201.882 137.453 206.175 135.68L207.995 134.84C208.369 134.747 208.649 134.653 208.835 134.56C209.115 134.467 209.349 134.373 209.535 134.28L210.795 133.58C211.075 133.58 211.262 133.673 211.355 133.86C211.542 133.953 211.495 134.14 211.215 134.42L209.955 134.98C209.489 135.353 208.975 135.587 208.415 135.68L206.455 136.66C202.069 138.34 198.382 139.273 195.395 139.46H194.135C193.295 139.46 192.642 139.413 192.175 139.32C191.802 139.32 191.522 139.273 191.335 139.18C190.309 140.86 189.049 142.26 187.555 143.38C186.155 144.5 184.615 145.06 182.935 145.06ZM189.235 137.36C189.329 137.36 189.422 137.407 189.515 137.5C189.609 137.5 189.702 137.453 189.795 137.36C189.889 137.173 189.982 136.893 190.075 136.52C190.169 136.427 190.215 136.38 190.215 136.38C190.402 135.82 190.495 135.353 190.495 134.98C190.495 134.047 190.262 133.067 189.795 132.04C189.329 131.013 188.769 130.267 188.115 129.8C187.929 129.613 187.649 129.52 187.275 129.52C186.529 129.52 186.015 129.8 185.735 130.36C185.269 131.013 185.035 131.713 185.035 132.46C185.035 133.673 185.455 134.7 186.295 135.54C187.229 136.38 188.209 136.987 189.235 137.36ZM182.935 142.68C183.495 142.68 183.962 142.587 184.335 142.4L184.755 142.26C186.155 141.513 187.462 140.44 188.675 139.04C188.769 138.853 188.815 138.713 188.815 138.62C188.815 138.527 188.769 138.48 188.675 138.48C186.902 137.827 185.502 136.847 184.475 135.54L183.635 133.86C183.635 133.673 183.589 133.58 183.495 133.58C183.495 133.58 183.402 133.72 183.215 134C183.122 134.187 182.749 134.887 182.095 136.1C181.442 137.313 181.022 138.573 180.835 139.88C180.835 140.813 181.022 141.513 181.395 141.98C181.769 142.447 182.282 142.68 182.935 142.68ZM219.053 145.34C217.653 145.34 216.906 144.64 216.813 143.24C216.813 142.12 216.766 141 216.673 139.88C216.58 138.76 216.533 137.687 216.533 136.66C216.72 132.18 216.813 129.427 216.813 128.4C216.813 125.973 216.86 124.293 216.953 123.36C217.14 120.933 217.326 119.16 217.513 118.04C217.513 117.947 217.513 117.573 217.513 116.92C217.606 116.267 217.793 115.753 218.073 115.38C218.446 114.913 218.866 114.68 219.333 114.68C219.8 114.68 220.266 114.82 220.733 115.1C221.2 115.38 221.48 115.8 221.573 116.36C221.76 116.827 221.76 117.34 221.573 117.9C221.106 119.3 220.873 121.073 220.873 123.22L220.313 134.42L220.453 134.7L220.593 134.56L221.433 132.88C222.646 129.893 224.42 127.093 226.753 124.48C227.313 123.827 227.966 123.267 228.713 122.8C229.18 122.427 229.646 122.24 230.113 122.24C231.326 122.24 232.073 122.94 232.353 124.34L232.213 124.62C232.12 124.713 231.98 124.713 231.793 124.62C231.793 124.62 231.7 124.527 231.513 124.34C230.953 123.687 230.486 123.36 230.113 123.36C229.74 123.36 229.273 123.687 228.713 124.34C227.22 126.207 226.053 127.84 225.213 129.24C223.346 132.413 221.946 136.38 221.013 141.14C220.92 141.513 220.826 141.84 220.733 142.12C220.64 142.493 220.546 142.867 220.453 143.24C220.173 144.64 219.706 145.34 219.053 145.34ZM254.677 159.06C252.623 159.06 251.177 157.66 250.337 154.86C249.497 152.06 249.077 148.56 249.077 144.36C249.077 142.4 249.17 140.44 249.357 138.48C249.543 136.427 249.637 135.12 249.637 134.56C250.663 123.08 252.063 111.693 253.837 100.4L254.257 97.18C254.35 96.7133 254.35 96.48 254.257 96.48C253.977 96.48 252.483 97.1333 249.777 98.44C245.11 100.493 241.75 102.22 239.697 103.62C239.417 103.807 239.183 103.9 238.997 103.9C238.717 103.807 238.53 103.62 238.437 103.34V103.2C238.437 102.64 238.81 102.127 239.557 101.66C240.117 101.287 240.63 101.007 241.097 100.82C241.47 100.633 241.797 100.493 242.077 100.4C244.41 99.1867 248.003 97.46 252.857 95.22L254.257 94.52C254.63 94.3333 254.817 94.1 254.817 93.82L256.497 85L257.197 81.5C258.41 75.34 259.343 71 259.997 68.48C260.09 68.0133 260.463 67.78 261.117 67.78C261.49 67.78 261.863 67.8733 262.237 68.06C262.983 68.34 263.357 68.8067 263.357 69.46C263.357 69.9267 263.31 70.3 263.217 70.58C261.91 76.0867 260.603 82.5733 259.297 90.04L258.877 92.28L259.997 92C262.237 91.0667 263.917 90.4133 265.037 90.04C269.517 88.36 275.537 86.82 283.097 85.42C283.563 85.3267 284.263 85.28 285.197 85.28C285.57 85.28 285.757 85.4667 285.757 85.84C285.757 86.12 285.103 86.4467 283.797 86.82C280.623 87.66 277.917 88.3133 275.677 88.78C272.317 89.5267 268.863 90.5533 265.317 91.86C261.863 93.0733 259.763 93.82 259.017 94.1C258.643 94.38 258.457 94.6133 258.457 94.8L256.357 109.08C255.237 118.973 254.49 126.58 254.117 131.9C253.93 133.393 253.837 134.513 253.837 135.26C253.37 139.46 253.137 143.24 253.137 146.6C253.137 148.653 253.23 150.193 253.417 151.22C253.603 152.527 253.977 153.553 254.537 154.3C255.097 155.047 255.797 155.42 256.637 155.42C257.477 155.42 258.363 155.093 259.297 154.44C261.257 152.76 262.283 151.873 262.377 151.78C264.99 149.167 268.257 145.247 272.177 140.02C271.803 140.58 272.783 139.227 275.117 135.96L276.097 134.42C276.19 134.233 276.283 134.14 276.377 134.14C276.563 134.047 276.75 134.047 276.937 134.14C277.217 134.42 277.263 134.7 277.077 134.98L276.097 136.66L273.297 140.86C269.283 146.74 265.783 151.173 262.797 154.16C259.53 157.427 256.823 159.06 254.677 159.06ZM284.323 145.34C282.923 145.34 282.176 144.64 282.083 143.24C282.083 142.12 282.036 141 281.943 139.88C281.849 138.76 281.803 137.687 281.803 136.66C281.989 132.18 282.083 129.427 282.083 128.4C282.083 125.973 282.129 124.293 282.223 123.36C282.409 120.933 282.596 119.16 282.783 118.04C282.783 117.947 282.783 117.573 282.783 116.92C282.876 116.267 283.063 115.753 283.343 115.38C283.716 114.913 284.136 114.68 284.603 114.68C285.069 114.68 285.536 114.82 286.003 115.1C286.469 115.38 286.749 115.8 286.843 116.36C287.029 116.827 287.029 117.34 286.843 117.9C286.376 119.3 286.143 121.073 286.143 123.22L285.583 134.42L285.723 134.7L285.863 134.56L286.703 132.88C287.916 129.893 289.689 127.093 292.023 124.48C292.583 123.827 293.236 123.267 293.983 122.8C294.449 122.427 294.916 122.24 295.383 122.24C296.596 122.24 297.343 122.94 297.623 124.34L297.483 124.62C297.389 124.713 297.249 124.713 297.063 124.62C297.063 124.62 296.969 124.527 296.783 124.34C296.223 123.687 295.756 123.36 295.383 123.36C295.009 123.36 294.543 123.687 293.983 124.34C292.489 126.207 291.323 127.84 290.483 129.24C288.616 132.413 287.216 136.38 286.283 141.14C286.189 141.513 286.096 141.84 286.003 142.12C285.909 142.493 285.816 142.867 285.723 143.24C285.443 144.64 284.976 145.34 284.323 145.34ZM342.379 141.28C340.886 141.28 339.626 141.14 338.599 140.86C336.359 140.207 334.772 139.367 333.839 138.34C333.839 138.247 333.466 137.78 332.719 136.94C331.972 136.1 331.319 134.513 330.759 132.18C330.759 131.9 330.712 131.667 330.619 131.48C330.619 131.2 330.572 131.013 330.479 130.92C330.199 130.92 329.732 131.387 329.079 132.32C328.426 133.16 327.866 133.907 327.399 134.56C325.719 136.8 323.666 138.573 321.239 139.88C319.372 140.813 317.786 141.28 316.479 141.28C315.172 141.28 314.192 140.767 313.539 139.74C313.166 139.273 312.979 138.62 312.979 137.78C312.979 136.473 313.586 134.933 314.799 133.16C317.692 128.493 322.079 124.76 327.959 121.96C329.266 121.4 330.339 121.073 331.179 120.98C331.552 120.793 331.926 120.7 332.299 120.7C332.952 120.7 333.326 120.933 333.419 121.4V121.68C333.419 122.24 333.139 122.8 332.579 123.36C332.299 123.64 331.459 124.387 330.059 125.6L322.779 130.64C320.819 131.947 319.512 132.927 318.859 133.58C318.206 134.14 317.739 134.607 317.459 134.98C317.179 135.353 317.039 135.867 317.039 136.52C317.039 137.36 317.459 137.78 318.299 137.78C319.232 137.78 320.306 137.407 321.519 136.66C322.732 136.007 324.366 134.653 326.419 132.6C327.259 131.76 328.426 130.313 329.919 128.26L330.899 127.14C331.179 126.767 331.506 126.44 331.879 126.16C331.972 126.16 332.019 126.16 332.019 126.16C332.112 126.067 332.206 126.067 332.299 126.16C332.486 126.16 332.626 126.207 332.719 126.3C332.999 126.487 333.092 126.813 332.999 127.28C332.999 127.747 332.999 128.073 332.999 128.26V130.5C333.186 132.087 333.652 133.487 334.399 134.7C335.612 136.753 337.432 138.153 339.859 138.9C341.446 139.367 342.939 139.6 344.339 139.6C347.606 139.6 351.292 138.48 355.399 136.24C356.799 135.493 357.826 134.84 358.479 134.28L359.319 133.72L359.599 133.58C359.786 133.393 359.972 133.393 360.159 133.58C360.346 133.953 360.346 134.14 360.159 134.14L359.739 134.42L359.039 135.12C358.572 135.4 358.106 135.727 357.639 136.1C357.172 136.38 356.612 136.707 355.959 137.08C352.412 139.32 348.912 140.673 345.459 141.14L342.379 141.28ZM318.999 130.92C319.092 131.2 320.306 130.64 322.639 129.24C325.066 127.747 326.886 126.533 328.099 125.6C328.379 125.413 328.706 125.18 329.079 124.9C329.452 124.62 329.872 124.293 330.339 123.92C330.806 123.453 331.039 123.173 331.039 123.08C331.039 122.893 330.992 122.753 330.899 122.66C330.806 122.567 330.666 122.567 330.479 122.66C330.386 122.66 330.292 122.66 330.199 122.66C328.052 123.407 325.999 124.48 324.039 125.88C320.492 128.773 318.812 130.453 318.999 130.92ZM372.389 109.22C371.923 109.22 371.456 109.08 370.989 108.8C370.709 108.52 370.476 108.1 370.289 107.54C370.289 106.98 370.569 106.42 371.129 105.86L372.249 104.88C372.343 104.787 372.529 104.693 372.809 104.6C373.089 104.507 373.276 104.507 373.369 104.6C373.556 104.6 373.696 104.74 373.789 105.02V105.16L373.649 105.44L373.089 106C372.903 106.187 372.809 106.373 372.809 106.56C372.716 106.653 372.669 106.887 372.669 107.26C372.669 107.26 372.763 107.353 372.949 107.54H373.229C373.976 107.54 374.769 107.213 375.609 106.56C375.703 106.467 375.796 106.373 375.889 106.28C376.076 106.187 376.263 106.14 376.449 106.14C376.823 106.14 377.009 106.28 377.009 106.56C377.009 106.747 376.963 106.887 376.869 106.98C376.123 107.82 375.049 108.473 373.649 108.94L372.809 109.22H372.389ZM372.389 148.28C370.056 148.28 368.283 147.533 367.069 146.04C366.136 145.013 365.529 143.66 365.249 141.98C365.063 140.673 364.969 139.6 364.969 138.76C364.969 137.36 365.109 136.053 365.389 134.84C365.576 134.093 365.949 132.973 366.509 131.48C366.603 131.293 366.743 130.92 366.929 130.36C367.116 129.8 367.396 129.38 367.769 129.1C368.143 128.913 368.376 128.82 368.469 128.82C368.749 128.82 368.983 129.007 369.169 129.38C369.449 129.66 369.636 129.987 369.729 130.36V130.92C369.729 131.107 369.636 131.573 369.449 132.32C368.516 135.867 368.049 138.527 368.049 140.3C368.049 142.26 368.516 143.753 369.449 144.78C370.476 145.9 371.783 146.46 373.369 146.46C374.676 146.46 375.983 146.18 377.289 145.62C378.689 145.153 379.483 144.873 379.669 144.78C383.963 142.913 388.209 140.347 392.409 137.08C392.503 136.987 393.576 136.1 395.629 134.42C395.909 133.953 396.189 133.673 396.469 133.58L396.749 133.3C396.936 133.02 397.123 132.973 397.309 133.16C397.403 133.253 397.449 133.393 397.449 133.58C397.449 133.673 397.403 133.767 397.309 133.86L395.769 135.4C394.836 136.427 392.876 138.06 389.889 140.3C386.996 142.54 384.336 144.267 381.909 145.48C377.989 147.347 374.816 148.28 372.389 148.28ZM407.227 159.06C405.174 159.06 403.727 157.66 402.887 154.86C402.047 152.06 401.627 148.56 401.627 144.36C401.627 142.4 401.721 140.44 401.907 138.48C402.094 136.427 402.187 135.12 402.187 134.56C403.214 123.08 404.614 111.693 406.387 100.4L406.807 97.18C406.901 96.7133 406.901 96.48 406.807 96.48C406.527 96.48 405.034 97.1333 402.327 98.44C397.661 100.493 394.301 102.22 392.247 103.62C391.967 103.807 391.734 103.9 391.547 103.9C391.267 103.807 391.081 103.62 390.987 103.34V103.2C390.987 102.64 391.361 102.127 392.107 101.66C392.667 101.287 393.181 101.007 393.647 100.82C394.021 100.633 394.347 100.493 394.627 100.4C396.961 99.1867 400.554 97.46 405.407 95.22L406.807 94.52C407.181 94.3333 407.367 94.1 407.367 93.82L409.047 85L409.747 81.5C410.961 75.34 411.894 71 412.547 68.48C412.641 68.0133 413.014 67.78 413.667 67.78C414.041 67.78 414.414 67.8733 414.787 68.06C415.534 68.34 415.907 68.8067 415.907 69.46C415.907 69.9267 415.861 70.3 415.767 70.58C414.461 76.0867 413.154 82.5733 411.847 90.04L411.427 92.28L412.547 92C414.787 91.0667 416.467 90.4133 417.587 90.04C422.067 88.36 428.087 86.82 435.647 85.42C436.114 85.3267 436.814 85.28 437.747 85.28C438.121 85.28 438.307 85.4667 438.307 85.84C438.307 86.12 437.654 86.4467 436.347 86.82C433.174 87.66 430.467 88.3133 428.227 88.78C424.867 89.5267 421.414 90.5533 417.867 91.86C414.414 93.0733 412.314 93.82 411.567 94.1C411.194 94.38 411.007 94.6133 411.007 94.8L408.907 109.08C407.787 118.973 407.041 126.58 406.667 131.9C406.481 133.393 406.387 134.513 406.387 135.26C405.921 139.46 405.687 143.24 405.687 146.6C405.687 148.653 405.781 150.193 405.967 151.22C406.154 152.527 406.527 153.553 407.087 154.3C407.647 155.047 408.347 155.42 409.187 155.42C410.027 155.42 410.914 155.093 411.847 154.44C413.807 152.76 414.834 151.873 414.927 151.78C417.541 149.167 420.807 145.247 424.727 140.02C424.354 140.58 425.334 139.227 427.667 135.96L428.647 134.42C428.741 134.233 428.834 134.14 428.927 134.14C429.114 134.047 429.301 134.047 429.487 134.14C429.767 134.42 429.814 134.7 429.627 134.98L428.647 136.66L425.847 140.86C421.834 146.74 418.334 151.173 415.347 154.16C412.081 157.427 409.374 159.06 407.227 159.06ZM435.193 162.42C434.353 162.42 433.607 161.953 432.953 161.02C432.673 160.367 432.533 159.713 432.533 159.06C432.533 157.66 433.047 156.167 434.073 154.58C434.54 153.833 435.147 153.087 435.893 152.34C436.733 151.687 437.247 151.267 437.433 151.08C438.087 150.52 438.413 149.727 438.413 148.7C438.413 148.14 438.367 147.72 438.273 147.44C437.433 143.8 436.313 139.787 434.913 135.4C434.54 134.28 434.073 132.74 433.513 130.78C432.86 128.727 432.347 126.907 431.973 125.32C431.6 123.453 431.413 122.007 431.413 120.98C431.413 119.86 431.553 118.74 431.833 117.62C432.58 114.913 433.84 112.813 435.613 111.32C436.547 110.76 437.247 110.387 437.713 110.2C438.46 109.92 439.16 109.78 439.813 109.78C441.587 109.78 442.66 110.76 443.033 112.72C443.313 113.84 443.453 114.96 443.453 116.08C443.453 118.88 442.94 121.68 441.913 124.48C441.26 126.347 440.653 127.933 440.093 129.24C439.533 130.547 439.067 131.527 438.693 132.18C438.413 132.74 438.273 133.347 438.273 134C438.273 134.653 438.367 135.167 438.553 135.54L439.533 138.9C440.187 140.58 440.56 141.653 440.653 142.12L441.493 145.34C441.773 147.3 441.913 148.327 441.913 148.42C441.913 148.607 442.007 148.7 442.193 148.7L442.613 148.42L443.173 148L445.973 146.32C448.4 144.92 450.407 143.66 451.993 142.54C453.767 141.233 455.12 140.067 456.053 139.04L457.733 137.08L458.993 135.26C458.993 135.167 459.227 134.793 459.693 134.14C459.88 133.673 460.067 133.393 460.253 133.3C460.627 133.113 460.86 133.16 460.953 133.44V133.86C460.953 134.42 460.627 135.12 459.973 135.96L458.713 137.92C457.78 139.04 457.22 139.693 457.033 139.88C456.567 140.533 455.213 141.84 452.973 143.8C450.92 145.293 448.913 146.647 446.953 147.86L444.153 149.54L442.613 150.66L442.193 151.08C442.007 151.267 441.913 151.407 441.913 151.5C441.913 152.153 441.867 152.667 441.773 153.04C441.587 154.16 441.307 155.187 440.933 156.12L439.953 158.5C439.487 159.433 438.787 160.32 437.853 161.16C436.92 162 436.033 162.42 435.193 162.42ZM437.153 130.78C437.247 130.687 437.293 130.64 437.293 130.64C437.293 130.64 437.433 130.5 437.713 130.22C437.993 129.94 438.18 129.707 438.273 129.52C438.367 129.24 438.46 129.007 438.553 128.82C439.207 127.607 439.767 126.16 440.233 124.48C440.98 121.96 441.447 120.187 441.633 119.16C441.82 117.853 441.913 116.92 441.913 116.36V115.8C441.913 114.867 441.773 113.98 441.493 113.14C441.213 112.02 440.56 111.46 439.533 111.46C439.067 111.46 438.647 111.6 438.273 111.88C437.06 112.72 436.22 113.56 435.753 114.4C434.54 115.987 433.933 117.853 433.933 120C433.933 120.56 434.027 121.307 434.213 122.24C434.493 124.387 435.053 126.44 435.893 128.4L436.453 129.94L436.873 130.64C436.873 130.64 436.873 130.687 436.873 130.78C436.967 130.78 437.013 130.78 437.013 130.78H437.153ZM5.42516 327.2C4.58516 327.2 3.74516 326.92 2.90516 326.36C2.06516 325.893 1.59849 325.333 1.50516 324.68C1.13182 323.093 0.945156 320.807 0.945156 317.82L1.08516 311.94C1.17849 309.14 1.55182 304.8 2.20516 298.92C2.85849 292.947 3.51182 288.467 4.16516 285.48C4.35182 284.827 4.95849 284.173 5.98516 283.52C7.10516 282.773 8.03849 282.633 8.78516 283.1C9.15849 283.38 9.25182 283.753 9.06516 284.22C8.41182 285.993 7.94516 287.767 7.66516 289.54C7.47849 291.313 7.29182 293.6 7.10516 296.4C7.10516 297.24 7.01182 298.593 6.82516 300.46C6.54516 303.26 6.31182 307.553 6.12516 313.34C6.03182 314.273 5.98516 315.72 5.98516 317.68C5.89182 317.96 5.84516 318.427 5.84516 319.08L5.98516 321.88C5.98516 322.907 6.12516 323.467 6.40516 323.56C6.77849 323.56 7.10516 323.233 7.38516 322.58C7.75849 322.02 8.55182 320.293 9.76516 317.4L14.3852 305.78C14.7585 304.66 15.1318 303.867 15.5052 303.4C15.7852 302.933 16.2052 302.7 16.7652 302.7C17.4185 302.7 17.8852 303.027 18.1652 303.68L18.8652 306.34L19.9852 311.66C20.3585 312.593 20.6852 313.293 20.9652 313.76C21.2452 314.227 21.5718 314.46 21.9452 314.46C22.6918 314.46 23.5785 313.573 24.6052 311.8C24.8852 311.24 26.1452 308.767 28.3852 304.38L33.8452 292.9L35.6652 289.68C35.8518 289.493 36.0385 289.447 36.2252 289.54C36.5052 289.633 36.5985 289.82 36.5052 290.1L30.4852 303.12L27.4052 309.56C26.1918 311.987 25.4452 313.433 25.1652 313.9C24.3252 314.927 23.6252 315.72 23.0652 316.28C22.5052 316.84 21.8518 317.12 21.1052 317.12C20.2652 317.12 19.5652 316.513 19.0052 315.3C18.4452 314.18 18.0718 313.013 17.8852 311.8C17.6985 311.24 17.5118 310.493 17.3252 309.56C17.2318 308.72 17.1385 308.067 17.0452 307.6C16.8585 307.04 16.6718 306.807 16.4852 306.9C16.2052 306.993 15.9252 307.367 15.6452 308.02C15.3652 308.673 15.1785 309.093 15.0852 309.28C13.9652 312.36 12.6118 315.953 11.0252 320.06C10.6518 321.18 9.90516 322.767 8.78516 324.82C8.59849 325.38 8.08516 325.987 7.24516 326.64C6.77849 327.013 6.17182 327.2 5.42516 327.2ZM59.7955 277.22C59.3288 277.22 58.8621 277.08 58.3955 276.8C58.1155 276.52 57.8821 276.1 57.6955 275.54C57.6955 274.98 57.9755 274.42 58.5355 273.86L59.6555 272.88C59.7488 272.787 59.9355 272.693 60.2155 272.6C60.4955 272.507 60.6821 272.507 60.7755 272.6C60.9621 272.6 61.1021 272.74 61.1955 273.02V273.16L61.0555 273.44L60.4955 274C60.3088 274.187 60.2155 274.373 60.2155 274.56C60.1221 274.653 60.0755 274.887 60.0755 275.26C60.0755 275.26 60.1688 275.353 60.3555 275.54H60.6355C61.3821 275.54 62.1755 275.213 63.0155 274.56C63.1088 274.467 63.2021 274.373 63.2955 274.28C63.4821 274.187 63.6688 274.14 63.8555 274.14C64.2288 274.14 64.4155 274.28 64.4155 274.56C64.4155 274.747 64.3688 274.887 64.2755 274.98C63.5288 275.82 62.4555 276.473 61.0555 276.94L60.2155 277.22H59.7955ZM59.7955 316.28C57.4621 316.28 55.6888 315.533 54.4755 314.04C53.5421 313.013 52.9355 311.66 52.6555 309.98C52.4688 308.673 52.3755 307.6 52.3755 306.76C52.3755 305.36 52.5155 304.053 52.7955 302.84C52.9821 302.093 53.3555 300.973 53.9155 299.48C54.0088 299.293 54.1488 298.92 54.3355 298.36C54.5221 297.8 54.8021 297.38 55.1755 297.1C55.5488 296.913 55.7821 296.82 55.8755 296.82C56.1555 296.82 56.3888 297.007 56.5755 297.38C56.8555 297.66 57.0421 297.987 57.1355 298.36V298.92C57.1355 299.107 57.0421 299.573 56.8555 300.32C55.9221 303.867 55.4555 306.527 55.4555 308.3C55.4555 310.26 55.9221 311.753 56.8555 312.78C57.8821 313.9 59.1888 314.46 60.7755 314.46C62.0821 314.46 63.3888 314.18 64.6955 313.62C66.0955 313.153 66.8888 312.873 67.0755 312.78C71.3688 310.913 75.6155 308.347 79.8155 305.08C79.9088 304.987 80.9821 304.1 83.0355 302.42C83.3155 301.953 83.5955 301.673 83.8755 301.58L84.1555 301.3C84.3421 301.02 84.5288 300.973 84.7155 301.16C84.8088 301.253 84.8555 301.393 84.8555 301.58C84.8555 301.673 84.8088 301.767 84.7155 301.86L83.1755 303.4C82.2421 304.427 80.2821 306.06 77.2955 308.3C74.4021 310.54 71.7421 312.267 69.3155 313.48C65.3955 315.347 62.2221 316.28 59.7955 316.28ZM94.6336 327.06C92.5803 327.06 91.1336 325.66 90.2936 322.86C89.4536 320.06 89.0336 316.56 89.0336 312.36C89.0336 310.4 89.1269 308.44 89.3136 306.48C89.5003 304.427 89.5936 303.12 89.5936 302.56C90.6203 291.08 92.0203 279.693 93.7936 268.4L94.2136 265.18C94.3069 264.713 94.3069 264.48 94.2136 264.48C93.9336 264.48 92.4403 265.133 89.7336 266.44C85.0669 268.493 81.7069 270.22 79.6536 271.62C79.3736 271.807 79.1403 271.9 78.9536 271.9C78.6736 271.807 78.4869 271.62 78.3936 271.34V271.2C78.3936 270.64 78.7669 270.127 79.5136 269.66C80.0736 269.287 80.5869 269.007 81.0536 268.82C81.4269 268.633 81.7536 268.493 82.0336 268.4C84.3669 267.187 87.9603 265.46 92.8136 263.22L94.2136 262.52C94.5869 262.333 94.7736 262.1 94.7736 261.82L96.4536 253L97.1536 249.5C98.3669 243.34 99.3003 239 99.9536 236.48C100.047 236.013 100.42 235.78 101.074 235.78C101.447 235.78 101.82 235.873 102.194 236.06C102.94 236.34 103.314 236.807 103.314 237.46C103.314 237.927 103.267 238.3 103.174 238.58C101.867 244.087 100.56 250.573 99.2536 258.04L98.8336 260.28L99.9536 260C102.194 259.067 103.874 258.413 104.994 258.04C109.474 256.36 115.494 254.82 123.054 253.42C123.52 253.327 124.22 253.28 125.154 253.28C125.527 253.28 125.714 253.467 125.714 253.84C125.714 254.12 125.06 254.447 123.754 254.82C120.58 255.66 117.874 256.313 115.634 256.78C112.274 257.527 108.82 258.553 105.274 259.86C101.82 261.073 99.7203 261.82 98.9736 262.1C98.6003 262.38 98.4136 262.613 98.4136 262.8L96.3136 277.08C95.1936 286.973 94.4469 294.58 94.0736 299.9C93.8869 301.393 93.7936 302.513 93.7936 303.26C93.3269 307.46 93.0936 311.24 93.0936 314.6C93.0936 316.653 93.1869 318.193 93.3736 319.22C93.5603 320.527 93.9336 321.553 94.4936 322.3C95.0536 323.047 95.7536 323.42 96.5936 323.42C97.4336 323.42 98.3203 323.093 99.2536 322.44C101.214 320.76 102.24 319.873 102.334 319.78C104.947 317.167 108.214 313.247 112.134 308.02C111.76 308.58 112.74 307.227 115.074 303.96L116.054 302.42C116.147 302.233 116.24 302.14 116.334 302.14C116.52 302.047 116.707 302.047 116.894 302.14C117.174 302.42 117.22 302.7 117.034 302.98L116.054 304.66L113.254 308.86C109.24 314.74 105.74 319.173 102.754 322.16C99.4869 325.427 96.7803 327.06 94.6336 327.06ZM126.52 323C125.68 323 124.746 321.6 123.72 318.8C123.16 316.933 122.693 314.087 122.32 310.26C122.04 307.553 121.9 304.847 121.9 302.14C121.9 300.367 121.946 299.06 122.04 298.22C123.16 279.273 127.266 262.94 134.36 249.22C135.946 246.14 137.626 243.48 139.4 241.24C141.173 238.907 143.226 237.087 145.56 235.78C146.586 235.22 147.566 234.94 148.5 234.94C150.46 234.94 151.766 235.92 152.42 237.88C153.073 239.467 153.4 241.193 153.4 243.06C153.4 243.9 153.353 244.507 153.26 244.88C151.486 264.667 143.74 281.98 130.02 296.82L128.06 298.92C127.5 299.48 127.08 300.04 126.8 300.6C125.96 302 125.54 304.007 125.54 306.62C125.54 309.513 125.913 312.313 126.66 315.02C126.94 315.767 127.22 316.14 127.5 316.14C127.966 316.14 128.62 315.253 129.46 313.48C131.046 311.147 131.933 309.84 132.12 309.56C133.986 306.853 136.086 304.473 138.42 302.42C139.726 301.3 140.94 300.74 142.06 300.74C142.993 300.74 143.88 301.16 144.72 302C145.186 302.56 145.933 303.54 146.96 304.94C148.08 306.247 149.153 307.32 150.18 308.16C151.3 309 152.42 309.42 153.54 309.42C154.473 309.42 155.406 309.14 156.34 308.58L157.32 307.74C157.506 307.553 157.693 307.553 157.88 307.74V308.3C156.76 309.887 155.22 310.68 153.26 310.68C152.42 310.68 151.813 310.587 151.44 310.4C150.226 310.12 149.2 309.56 148.36 308.72C147.146 307.787 145.886 306.48 144.58 304.8C144.486 304.613 144.253 304.287 143.88 303.82C143.506 303.353 143.18 303.027 142.9 302.84C142.62 302.653 142.34 302.56 142.06 302.56C141.406 302.56 140.473 303.167 139.26 304.38C136.74 306.807 134.266 310.027 131.84 314.04C131.653 314.32 130.953 315.673 129.74 318.1C129.18 319.593 128.526 320.9 127.78 322.02C127.406 322.673 126.986 323 126.52 323ZM126.24 298.22C126.426 298.22 126.846 297.893 127.5 297.24C127.5 297.24 128.153 296.587 129.46 295.28C130.766 293.973 131.98 292.62 133.1 291.22C139.913 282.447 144.906 272.833 148.08 262.38C149.2 258.74 150.04 255.427 150.6 252.44C151.16 249.453 151.44 246.42 151.44 243.34C151.44 241.007 151.113 239.187 150.46 237.88C149.9 237.04 149.293 236.62 148.64 236.62C148.266 236.62 147.893 236.713 147.52 236.9C146.12 237.553 144.906 238.44 143.88 239.56C142.946 240.68 141.78 242.22 140.38 244.18C138.42 247.26 136.413 251.413 134.36 256.64C132.68 261.493 131.326 266.067 130.3 270.36C129.086 275.587 128.153 280.253 127.5 284.36L126.66 291.22L126.24 294.72C126.146 295.467 126.1 296.587 126.1 298.08C126.1 298.173 126.146 298.22 126.24 298.22ZM221.983 348.34C221.237 348.34 220.397 347.92 219.463 347.08C218.623 346.333 217.97 345.54 217.503 344.7C216.29 342.647 215.31 339.987 214.563 336.72C213.91 333.453 213.117 328.227 212.183 321.04L211.763 317.82C210.55 313.06 209.57 309.7 208.823 307.74C208.357 306.527 207.75 305.267 207.003 303.96L206.863 303.82C206.397 303.073 206.257 301.813 206.443 300.04C206.443 299.48 206.537 299.06 206.723 298.78C206.817 298.5 207.143 298.313 207.703 298.22C208.17 298.127 208.87 297.893 209.803 297.52C210.457 297.147 210.783 296.68 210.783 296.12C210.783 291.92 211.017 286.88 211.483 281C212.323 272.6 214.983 262.38 219.463 250.34C221.237 245.767 223.43 241.753 226.043 238.3C227.35 236.713 228.75 235.36 230.243 234.24C231.737 233.027 233.043 232.187 234.163 231.72C234.91 231.44 235.61 231.3 236.263 231.3C238.69 231.3 240.51 232.653 241.723 235.36C242.563 237.133 242.983 239.373 242.983 242.08C242.983 248.24 241.443 255.193 238.363 262.94C234.723 271.993 229.123 281.187 221.563 290.52L218.343 294.44L215.963 297.1C215.31 297.847 214.983 298.407 214.983 298.78C214.983 299.247 215.45 299.76 216.383 300.32C216.477 300.413 216.757 300.6 217.223 300.88C217.783 301.16 218.11 301.393 218.203 301.58C218.297 302.047 218.157 302.28 217.783 302.28C217.317 302.28 216.803 302.093 216.243 301.72L215.543 301.58C215.263 301.58 215.123 301.767 215.123 302.14C215.123 302.793 215.123 304.193 215.123 306.34C215.123 308.487 215.217 310.447 215.403 312.22C215.59 314.087 215.963 315.813 216.523 317.4C217.83 321.04 219.137 325.007 220.443 329.3C221.843 333.687 222.73 336.58 223.103 337.98C223.57 339.567 223.85 341.06 223.943 342.46C224.13 343.393 224.223 344.14 224.223 344.7C224.223 345.913 223.99 346.8 223.523 347.36C223.15 348.013 222.637 348.34 221.983 348.34ZM215.263 294.16C215.357 294.16 215.543 294.02 215.823 293.74C220.49 289.073 224.457 284.22 227.723 279.18C232.483 271.993 236.123 264.807 238.643 257.62C240.603 251.927 241.583 246.84 241.583 242.36C241.583 240.493 241.397 238.86 241.023 237.46C240.65 236.153 240.09 235.127 239.343 234.38C238.69 233.633 237.85 233.26 236.823 233.26C235.797 233.26 234.677 233.68 233.463 234.52C232.063 235.453 230.943 236.48 230.103 237.6C228.33 240.027 226.79 242.313 225.483 244.46C223.15 248.847 221.05 254.633 219.183 261.82C217.223 270.033 215.917 279.413 215.263 289.96L215.123 292.76C215.123 293.693 215.17 294.16 215.263 294.16ZM209.943 304.94C210.13 304.753 210.223 304.567 210.223 304.38C210.317 304.193 210.363 303.867 210.363 303.4C210.363 302.187 210.13 301.58 209.663 301.58C209.477 301.58 209.383 301.627 209.383 301.72C208.917 302.093 208.823 302.653 209.103 303.4C209.103 303.493 209.197 303.82 209.383 304.38C209.57 304.847 209.757 305.033 209.943 304.94ZM221.703 345.26C222.077 345.26 222.263 344.887 222.263 344.14C222.263 343.58 222.17 342.927 221.983 342.18C220.957 336.487 219.09 330.56 216.383 324.4C216.197 324.213 216.103 324.213 216.103 324.4C216.757 332.147 218.11 338.54 220.163 343.58C220.63 344.42 221.003 344.933 221.283 345.12C221.377 345.213 221.517 345.26 221.703 345.26ZM255.379 310.4C251.365 310.4 248.519 309.327 246.839 307.18C245.532 305.593 244.879 303.727 244.879 301.58C244.879 301.113 244.972 300.413 245.159 299.48C245.532 297.613 246.652 295.793 248.519 294.02C250.479 292.247 252.392 291.22 254.259 290.94C254.445 290.847 254.725 290.8 255.099 290.8C255.845 290.8 256.452 291.08 256.919 291.64C257.479 292.2 257.619 292.807 257.339 293.46C256.965 294.673 256.312 295.793 255.379 296.82C254.352 298.033 253.139 299.107 251.739 300.04L249.919 301.16C249.172 301.813 248.799 302.28 248.799 302.56C248.799 303.587 249.265 304.66 250.199 305.78C251.225 306.9 252.485 307.647 253.979 308.02C255.099 308.207 255.939 308.3 256.499 308.3C257.525 308.3 259.299 308.067 261.819 307.6C266.112 306.853 270.265 305.593 274.279 303.82C275.492 303.353 276.799 302.7 278.199 301.86L279.179 301.3L279.599 301.02C279.785 300.833 279.972 300.88 280.159 301.16C280.345 301.347 280.299 301.533 280.019 301.72L279.599 302L278.619 302.7L274.699 304.8C266.952 308.533 260.512 310.4 255.379 310.4ZM248.519 300.32C248.519 300.6 248.799 300.553 249.359 300.18C249.639 299.993 250.432 299.387 251.739 298.36C253.139 297.333 254.305 296.12 255.239 294.72C255.519 294.253 255.752 293.693 255.939 293.04C256.032 292.947 256.032 292.853 255.939 292.76L255.659 292.62C255.379 292.62 254.959 292.807 254.399 293.18L253.279 293.74C252.812 294.02 252.205 294.533 251.459 295.28C250.619 296.12 250.012 296.913 249.639 297.66C248.985 298.593 248.612 299.48 248.519 300.32ZM295.601 310.4C291.588 310.4 288.741 309.327 287.061 307.18C285.755 305.593 285.101 303.727 285.101 301.58C285.101 301.113 285.195 300.413 285.381 299.48C285.755 297.613 286.875 295.793 288.741 294.02C290.701 292.247 292.615 291.22 294.481 290.94C294.668 290.847 294.948 290.8 295.321 290.8C296.068 290.8 296.675 291.08 297.141 291.64C297.701 292.2 297.841 292.807 297.561 293.46C297.188 294.673 296.535 295.793 295.601 296.82C294.575 298.033 293.361 299.107 291.961 300.04L290.141 301.16C289.395 301.813 289.021 302.28 289.021 302.56C289.021 303.587 289.488 304.66 290.421 305.78C291.448 306.9 292.708 307.647 294.201 308.02C295.321 308.207 296.161 308.3 296.721 308.3C297.748 308.3 299.521 308.067 302.041 307.6C306.335 306.853 310.488 305.593 314.501 303.82C315.715 303.353 317.021 302.7 318.421 301.86L319.401 301.3L319.821 301.02C320.008 300.833 320.195 300.88 320.381 301.16C320.568 301.347 320.521 301.533 320.241 301.72L319.821 302L318.841 302.7L314.921 304.8C307.175 308.533 300.735 310.4 295.601 310.4ZM288.741 300.32C288.741 300.6 289.021 300.553 289.581 300.18C289.861 299.993 290.655 299.387 291.961 298.36C293.361 297.333 294.528 296.12 295.461 294.72C295.741 294.253 295.975 293.693 296.161 293.04C296.255 292.947 296.255 292.853 296.161 292.76L295.881 292.62C295.601 292.62 295.181 292.807 294.621 293.18L293.501 293.74C293.035 294.02 292.428 294.533 291.681 295.28C290.841 296.12 290.235 296.913 289.861 297.66C289.208 298.593 288.835 299.48 288.741 300.32ZM335.544 329.02C331.531 329.02 328.871 326.733 327.564 322.16C326.351 317.68 325.744 312.453 325.744 306.48C325.744 301.907 326.164 296.073 327.004 288.98C328.124 279.273 330.037 270.407 332.744 262.38C334.237 257.993 335.917 253.84 337.784 249.92C339.091 247.307 340.211 245.207 341.144 243.62C342.171 242.033 343.337 240.727 344.644 239.7C345.204 239.42 345.624 239.28 345.904 239.28C346.557 239.28 347.071 239.653 347.444 240.4C347.911 241.147 348.144 241.94 348.144 242.78C348.144 245.207 347.957 247.353 347.584 249.22C344.971 265.46 340.817 279.647 335.124 291.78C334.564 293.087 333.771 294.673 332.744 296.54C331.717 298.313 330.924 299.807 330.364 301.02C329.804 301.953 329.477 302.747 329.384 303.4L329.244 308.86C329.244 314.18 329.757 318.24 330.784 321.04C331.811 323.653 333.024 325.287 334.424 325.94C335.077 326.22 335.777 326.36 336.524 326.36C338.764 326.36 341.657 324.82 345.204 321.74C348.471 318.94 352.111 315.02 356.124 309.98L360.464 304.24L362.004 301.86C362.377 301.673 362.611 301.58 362.704 301.58C362.984 301.58 363.124 301.72 363.124 302C363.217 302.187 363.171 302.373 362.984 302.56L361.444 304.94L357.104 310.82C356.451 311.66 355.471 312.92 354.164 314.6C352.857 316.373 351.597 317.867 350.384 319.08C348.144 321.413 345.764 323.513 343.244 325.38C340.444 327.807 337.877 329.02 335.544 329.02ZM330.084 299.2C330.364 298.92 330.644 298.453 330.924 297.8C332.697 294.627 334.611 290.52 336.664 285.48C340.677 275.493 343.711 264.667 345.764 253C346.604 248.8 347.024 245.813 347.024 244.04L346.884 242.22C346.884 241.753 346.744 241.473 346.464 241.38C346.464 241.287 346.371 241.24 346.184 241.24C345.997 241.24 345.764 241.38 345.484 241.66C345.204 241.847 345.017 242.08 344.924 242.36C343.991 243.667 343.337 244.693 342.964 245.44C341.284 248.8 339.697 252.72 338.204 257.2C334.564 268.4 331.904 280.533 330.224 293.6C329.851 296.307 329.664 298.127 329.664 299.06C329.664 299.527 329.711 299.713 329.804 299.62C329.897 299.527 329.991 299.387 330.084 299.2ZM375.151 277.22C374.684 277.22 374.218 277.08 373.751 276.8C373.471 276.52 373.238 276.1 373.051 275.54C373.051 274.98 373.331 274.42 373.891 273.86L375.011 272.88C375.104 272.787 375.291 272.693 375.571 272.6C375.851 272.507 376.038 272.507 376.131 272.6C376.318 272.6 376.458 272.74 376.551 273.02V273.16L376.411 273.44L375.851 274C375.664 274.187 375.571 274.373 375.571 274.56C375.478 274.653 375.431 274.887 375.431 275.26C375.431 275.26 375.524 275.353 375.711 275.54H375.991C376.738 275.54 377.531 275.213 378.371 274.56C378.464 274.467 378.558 274.373 378.651 274.28C378.838 274.187 379.024 274.14 379.211 274.14C379.584 274.14 379.771 274.28 379.771 274.56C379.771 274.747 379.724 274.887 379.631 274.98C378.884 275.82 377.811 276.473 376.411 276.94L375.571 277.22H375.151ZM375.151 316.28C372.818 316.28 371.044 315.533 369.831 314.04C368.898 313.013 368.291 311.66 368.011 309.98C367.824 308.673 367.731 307.6 367.731 306.76C367.731 305.36 367.871 304.053 368.151 302.84C368.338 302.093 368.711 300.973 369.271 299.48C369.364 299.293 369.504 298.92 369.691 298.36C369.878 297.8 370.158 297.38 370.531 297.1C370.904 296.913 371.138 296.82 371.231 296.82C371.511 296.82 371.744 297.007 371.931 297.38C372.211 297.66 372.398 297.987 372.491 298.36V298.92C372.491 299.107 372.398 299.573 372.211 300.32C371.278 303.867 370.811 306.527 370.811 308.3C370.811 310.26 371.278 311.753 372.211 312.78C373.238 313.9 374.544 314.46 376.131 314.46C377.438 314.46 378.744 314.18 380.051 313.62C381.451 313.153 382.244 312.873 382.431 312.78C386.724 310.913 390.971 308.347 395.171 305.08C395.264 304.987 396.338 304.1 398.391 302.42C398.671 301.953 398.951 301.673 399.231 301.58L399.511 301.3C399.698 301.02 399.884 300.973 400.071 301.16C400.164 301.253 400.211 301.393 400.211 301.58C400.211 301.673 400.164 301.767 400.071 301.86L398.531 303.4C397.598 304.427 395.638 306.06 392.651 308.3C389.758 310.54 387.098 312.267 384.671 313.48C380.751 315.347 377.578 316.28 375.151 316.28ZM409.429 310.82C408.869 310.82 408.356 310.587 407.889 310.12C407.516 309.653 407.189 309.187 406.909 308.72C406.162 307.227 405.696 305.64 405.509 303.96C405.416 303.587 405.369 302.933 405.369 302C405.369 300.507 405.509 298.967 405.789 297.38C406.069 295.7 406.256 294.627 406.349 294.16C406.349 293.88 406.442 293.46 406.629 292.9C406.909 291.593 407.562 290.52 408.589 289.68C408.962 289.4 409.476 289.12 410.129 288.84C410.876 288.56 411.389 288.56 411.669 288.84C411.762 288.933 411.809 289.073 411.809 289.26C411.902 289.447 411.949 289.727 411.949 290.1L411.809 291.92L411.109 295.42C410.736 297.473 410.502 299.013 410.409 300.04C410.129 301.253 409.989 302.98 409.989 305.22C409.989 306.247 410.176 306.76 410.549 306.76C410.736 306.76 411.156 306.433 411.809 305.78L415.169 302C417.129 299.853 418.622 298.313 419.649 297.38C421.236 296.167 422.449 295.56 423.289 295.56C424.129 295.56 424.829 295.84 425.389 296.4C426.042 296.867 426.602 297.473 427.069 298.22C427.536 298.873 427.862 299.34 428.049 299.62C429.262 301.3 430.616 302.607 432.109 303.54C432.856 304.193 433.742 304.52 434.769 304.52C435.516 304.52 436.449 304.193 437.569 303.54L438.689 302.7L438.969 302.56C439.062 302.56 439.109 302.653 439.109 302.84C439.202 303.027 439.202 303.167 439.109 303.26C437.989 304.847 436.496 305.64 434.629 305.64C433.789 305.64 433.136 305.547 432.669 305.36C431.549 305.08 430.569 304.567 429.729 303.82C428.142 302.42 426.836 301.067 425.809 299.76C424.782 298.267 423.942 297.52 423.289 297.52C422.729 297.52 421.842 298.127 420.629 299.34C419.042 300.927 417.689 302.467 416.569 303.96L413.769 307.74C412.836 308.953 411.716 309.887 410.409 310.54C410.036 310.727 409.709 310.82 409.429 310.82ZM462.358 376.48C458.718 376.48 456.431 372.7 455.498 365.14C455.404 364.113 455.358 362.667 455.358 360.8C455.358 354.64 456.664 348.667 459.278 342.88C461.891 337.093 465.438 331.12 469.918 324.96C471.971 322.44 473.044 321.087 473.138 320.9C473.511 320.433 473.698 319.92 473.698 319.36C473.698 313.107 473.091 306.433 471.878 299.34C471.878 299.247 471.784 298.687 471.598 297.66C471.504 296.54 471.038 295.98 470.198 295.98C469.918 295.98 469.404 296.167 468.658 296.54L462.638 300.74C460.584 302.047 458.951 302.933 457.738 303.4C456.804 303.867 455.918 304.1 455.078 304.1C454.424 304.1 453.911 303.867 453.538 303.4C453.351 302.84 453.258 302.42 453.258 302.14C453.258 301.58 453.491 300.927 453.958 300.18L454.798 299.06C457.691 295.7 460.958 293.087 464.598 291.22C466.651 290.193 468.471 289.68 470.058 289.68C471.271 289.68 472.484 289.913 473.698 290.38C474.724 290.847 475.378 291.733 475.658 293.04V293.32L475.518 293.6C475.518 293.6 475.471 293.6 475.378 293.6C475.284 293.6 475.238 293.6 475.238 293.6L474.958 293.46L474.538 292.76C473.791 291.733 472.578 291.22 470.898 291.22C469.778 291.22 468.658 291.453 467.538 291.92C466.791 292.2 465.764 292.713 464.458 293.46C463.804 293.833 462.824 294.487 461.518 295.42L458.998 297.8L456.618 300.32C456.244 300.88 456.011 301.3 455.918 301.58C455.918 301.767 456.058 301.767 456.338 301.58C456.431 301.58 456.571 301.487 456.758 301.3L457.738 300.88C457.924 300.693 458.158 300.553 458.438 300.46C458.718 300.273 458.998 300.04 459.278 299.76C460.678 298.827 462.778 297.333 465.578 295.28C466.884 294.44 467.864 293.88 468.518 293.6C469.451 293.227 470.291 293.04 471.038 293.04C472.344 293.04 473.371 293.6 474.118 294.72C474.864 296.12 475.424 298.033 475.798 300.46C476.638 304.847 477.198 309.233 477.478 313.62L477.618 315.72C477.711 315.907 477.804 315.907 477.898 315.72C478.084 315.533 478.224 315.393 478.318 315.3C480.184 313.247 482.658 310.867 485.738 308.16C487.231 306.853 488.398 305.873 489.238 305.22L490.638 304.1L494.278 301.44C494.744 301.16 495.118 301.16 495.398 301.44C495.584 301.813 495.444 302.14 494.978 302.42L491.338 305.22L489.938 306.34C487.978 308.02 486.904 308.953 486.718 309.14C484.571 310.913 481.771 313.713 478.318 317.54C477.851 318.007 477.618 318.613 477.618 319.36C477.711 320.573 477.711 322.067 477.618 323.84C477.618 325.707 477.618 327.107 477.618 328.04C477.618 335.32 477.058 342.04 475.938 348.2C474.911 354.453 473.511 359.773 471.738 364.16C469.964 368.64 468.331 371.813 466.838 373.68C465.344 375.547 463.851 376.48 462.358 376.48ZM461.658 373.54C462.404 373.54 463.058 373.167 463.618 372.42C464.644 371.487 465.484 370.367 466.138 369.06C467.631 366.353 468.844 363.087 469.778 359.26C472.484 348.34 473.838 336.813 473.838 324.68V323.42C473.838 322.767 473.651 322.72 473.278 323.28L471.178 325.94C466.138 332.847 462.498 339.007 460.258 344.42C458.111 350.02 457.038 355.667 457.038 361.36C457.038 362.667 457.084 363.647 457.178 364.3C457.364 367.567 458.158 370.133 459.558 372C460.118 373.027 460.818 373.54 461.658 373.54Z" fill="#DB8E8E"/>
</svg>
